<svg class="main-svg" xmlns="http://www.w3.org/2000/svg" xmlns:xlink="http://www.w3.org/1999/xlink" width="1200" height="800" style="" viewBox="0 0 1200 800"><rect x="0" y="0" width="1200" height="800" style="fill: rgb(255, 255, 255); fill-opacity: 1;"/><defs id="defs-a1d5ce"><g class="clips"><clipPath id="clipa1d5cexyplot" class="plotclip"><rect width="921" height="618"/></clipPath><clipPath class="axesclip" id="clipa1d5cex"><rect x="101" y="0" width="921" height="800"/></clipPath><clipPath class="axesclip" id="clipa1d5cey"><rect x="0" y="100" width="1200" height="618"/></clipPath><clipPath class="axesclip" id="clipa1d5cexy"><rect x="101" y="100" width="921" height="618"/></clipPath></g><g class="gradients"/></defs><g class="bglayer"><rect class="bg" x="101" y="100" width="921" height="618" style="fill: rgb(0, 0, 0); fill-opacity: 0; stroke-width: 0;"/></g><g class="layer-below"><g class="imagelayer"/><g class="shapelayer"/></g><g class="cartesianlayer"><g class="subplot xy"><g class="layer-subplot"><g class="shapelayer"/><g class="imagelayer"/></g><g class="gridlayer"><g class="x"><path class="xgrid crisp" transform="translate(192.72,0)" d="M0,100v618" style="stroke: rgb(189, 189, 189); stroke-opacity: 1; stroke-width: 1px;"/><path class="xgrid crisp" transform="translate(287.28,0)" d="M0,100v618" style="stroke: rgb(189, 189, 189); stroke-opacity: 1; stroke-width: 1px;"/><path class="xgrid crisp" transform="translate(381.84,0)" d="M0,100v618" style="stroke: rgb(189, 189, 189); stroke-opacity: 1; stroke-width: 1px;"/><path class="xgrid crisp" transform="translate(476.4,0)" d="M0,100v618" style="stroke: rgb(189, 189, 189); stroke-opacity: 1; stroke-width: 1px;"/><path class="xgrid crisp" transform="translate(570.96,0)" d="M0,100v618" style="stroke: rgb(189, 189, 189); stroke-opacity: 1; stroke-width: 1px;"/><path class="xgrid crisp" transform="translate(665.51,0)" d="M0,100v618" style="stroke: rgb(189, 189, 189); stroke-opacity: 1; stroke-width: 1px;"/><path class="xgrid crisp" transform="translate(760.07,0)" d="M0,100v618" style="stroke: rgb(189, 189, 189); stroke-opacity: 1; stroke-width: 1px;"/><path class="xgrid crisp" transform="translate(854.63,0)" d="M0,100v618" style="stroke: rgb(189, 189, 189); stroke-opacity: 1; stroke-width: 1px;"/><path class="xgrid crisp" transform="translate(949.19,0)" d="M0,100v618" style="stroke: rgb(189, 189, 189); stroke-opacity: 1; stroke-width: 1px;"/></g><g class="y"><path class="ygrid crisp" transform="translate(0,650.75)" d="M101,0h921" style="stroke: rgb(189, 189, 189); stroke-opacity: 1; stroke-width: 1px;"/><path class="ygrid crisp" transform="translate(0,567.4200000000001)" d="M101,0h921" style="stroke: rgb(189, 189, 189); stroke-opacity: 1; stroke-width: 1px;"/><path class="ygrid crisp" transform="translate(0,484.08)" d="M101,0h921" style="stroke: rgb(189, 189, 189); stroke-opacity: 1; stroke-width: 1px;"/><path class="ygrid crisp" transform="translate(0,400.75)" d="M101,0h921" style="stroke: rgb(189, 189, 189); stroke-opacity: 1; stroke-width: 1px;"/><path class="ygrid crisp" transform="translate(0,317.41999999999996)" d="M101,0h921" style="stroke: rgb(189, 189, 189); stroke-opacity: 1; stroke-width: 1px;"/><path class="ygrid crisp" transform="translate(0,234.09)" d="M101,0h921" style="stroke: rgb(189, 189, 189); stroke-opacity: 1; stroke-width: 1px;"/><path class="ygrid crisp" transform="translate(0,150.76)" d="M101,0h921" style="stroke: rgb(189, 189, 189); stroke-opacity: 1; stroke-width: 1px;"/></g></g><g class="zerolinelayer"/><path class="xlines-below"/><path class="ylines-below"/><g class="overlines-below"/><g class="xaxislayer-below"/><g class="yaxislayer-below"/><g class="overaxes-below"/><g class="plot" transform="translate(101, 100)" clip-path="url('#clipa1d5cexyplot')"><g class="scatterlayer mlayer"><g class="trace scatter trace1d14ab" style="stroke-miterlimit: 2; opacity: 1;"><g class="fills"/><g class="errorbars"/><g class="lines"><path class="js-line" d="M0,71.43L0.47,70.1L2.36,69.02L4.26,67.1L4.73,66.85L7.09,67.35L8.98,67.78L13.71,68.88L14.66,69.52L17.49,71.62L18.44,72.33L19.86,73.66L20.8,73.7L21.28,74.13L22.69,74.32L24.11,74.25L24.59,73.9L28.37,72.37L28.84,71.32L33.57,65.42L34.99,65.42L37.82,64.86L38.3,64L38.77,63.83L39.24,62.67L39.71,63.23L42.08,63.92L47.28,64.94L47.75,66.18L53.43,66.9L53.9,66.56L54.37,66.19L56.26,66.02L59.1,63.36L60.52,63.17L65.72,63.95L66.66,63.56L69.97,62.29L70.45,62.07L71.86,63.9L72.34,63.68L72.81,64.41L74.23,64.89L77.07,65L78.48,64.89L85.1,65.3L85.58,64.88L87.94,62.05L91.25,61.52L95.5,59.41L95.98,59.25L101.18,59.07L102.6,58.19L104.96,55.4L105.91,55.31L106.85,55.91L107.32,56.57L108.27,57.79L109.69,57.23L113.47,57.38L114.42,56.87L123.87,56.74L124.82,57.31L131.91,55.79L134.27,56.72L137.11,57.93L138.06,57.72L139,57.2L139.95,56.16L143.26,55.04L144.2,55.67L145.62,56.32L147.51,56.15L148.93,57.33L149.88,56.94L151.77,56.42L152.24,55.47L158.86,56.82L160.28,57.21L162.17,58.4L164.53,58.54L170.21,56.82L171.15,56.87L175.88,55.32L176.35,55.28L177.77,56.14L178.24,56.49L183.44,56.93L187.7,57.07L188.17,56.51L189.12,56.68L190.54,57.86L193.84,57.4L194.32,56.68L196.21,56.57L197.15,56.46L198.1,55.66L205.19,54.73L205.66,54.43L209.45,54.08L210.87,54.75L218.43,54.27L218.9,55.46L220.32,57.24L221.27,57.9L223.63,58.92L226.94,59.22L228.36,59.11L228.83,58.32L229.78,58.37L230.72,57.29L232.14,56.62L237.34,56.01L238.76,55.31L239.23,56.26L242.07,53.02L243.02,53.14L251.05,53.18L251.53,52.48L253.42,51.22L253.89,50.49L256.73,51.38L257.2,52.1L261.93,55.1L263.82,55.34L265.71,54.84L266.66,55.19L269.02,54.09L270.44,54.5L272.33,54.34L272.8,54.69L273.27,55.17L273.75,54.34L278,55.43L278.95,55.25L282.26,54.97L283.2,54.27L286.04,52.91L286.51,52.77L288.4,52.93L290.29,52.68L290.77,53.42L291.71,53.42L293.13,53.47L295.02,53.39L297.39,52.69L300.7,52.94L304.48,53.42L305.42,53.95L305.9,54.54L307.79,54.8L310.15,55.06L311.57,55.37L313.46,55.37L314.88,55.02L315.83,54.53L316.3,55.01L318.19,55.86L318.66,55.34L321.97,54.32L322.92,53.76L323.39,54.16L324.81,54.18L328.12,53.83L328.59,54.05L330.01,52.97L330.48,53.47L333.32,52.62L335.21,53L337.57,52.6L338.52,52.72L343.25,49.57L345.61,50.09L347.98,51.89L348.92,51.29L352.7,50.41L353.18,50.81L355.07,51.13L356.49,50.66L357.9,51.32L359.32,51.07L361.21,51.81L361.69,51.41L363.1,52.14L363.58,51.61L364.05,51.22L365.94,50.82L366.41,51.11L368.31,51.18L369.72,51.26L370.67,51.83L372.09,52.43L372.56,53.09L373.98,54.49L374.92,54.61L378.23,56.3L379.18,56.4L380.13,55.4L382.02,55.63L383.43,55.13L384.38,54.66L386.74,53.93L387.22,52.95L389.11,52.18L390.53,51.84L392.89,51.73L393.84,51.92L397.15,50.89L397.62,50.46L399.98,49.16L402.82,49.21L408.49,50.8L408.97,51.3L411.33,51.32L411.8,51.89L414.17,52.33L414.64,53.11L417,53.47L417.95,53.67L419.84,53.79L421.26,53.6L426.93,54.93L427.4,54.79L434.97,51.01L437.81,51.27L439.7,49.4L441.59,48.64L444.43,48.28L446.32,48.51L448.68,48.58L449.63,49.14L450.1,49.21L450.57,50.07L452.46,50.32L452.94,50.43L454.83,51.45L455.77,51.86L458.14,52.46L459.08,52.45L459.55,51.59L460.03,52.45L461.92,53.03L462.39,52.69L462.86,52.2L464.28,51.96L464.76,52.19L468.54,51.76L472.79,51.44L474.21,50.64L475.63,48.34L476.1,47.65L478.47,46.46L482.25,46.23L485.09,46.14L485.56,46.32L486.03,46.78L486.98,46.44L488.39,46.07L488.87,46.91L491.23,48.31L493.6,47.66L495.96,47.7L496.43,48.06L500.69,49.98L501.63,50.28L502.58,50.07L504.47,50.66L510.14,53.2L510.62,52.93L512.98,52.11L513.93,51.91L514.4,51.44L517.24,51.63L518.18,50.54L519.13,50.62L520.07,50.57L522.91,50.68L526.69,51.94L528.11,51.31L529.53,50.46L530,50.51L530.95,50.46L531.89,50.69L532.36,51.26L533.31,50.89L534.26,52.04L535.67,52.55L537.09,52.15L540.87,52.29L541.82,51.89L542.29,51.19L546.55,50.29L547.02,49.81L548.44,49.33L554.11,48.75L557.9,45.44L558.37,44.32L559.79,43.29L561.2,43.08L564.51,42.67L565.46,43.26L570.66,44.87L571.13,44.38L572.08,44.41L573.97,43.51L581.06,43.46L582.01,44.39L588.15,43.51L588.63,43.15L598.56,44.35L599.03,44.6L599.97,44L601.86,44.48L602.34,44.82L603.28,44.46L608.96,43.66L609.43,44.55L616.99,49.03L617.94,47.9L618.41,47.27L619.36,47.65L621.72,48.49L624.09,48.75L625.5,47.8L626.45,47.8L628.34,47.8L628.81,47.41L629.76,46.58L631.18,46.8L633.54,47.23L634.49,46.82L636.38,45.2L638.27,44.69L643,43.79L643.47,44.29L646.78,45.36L647.25,44.72L648.67,44.18L649.14,44.39L649.62,44.83L651.04,44.88L652.45,44.71L652.93,45.31L654.34,46.14L655.29,46.43L659.55,46.79L665.22,46.88L666.16,47.65L666.64,48.29L669.95,48.66L670.42,47.8L672.78,47.5L673.73,47.19L676.57,45.02L677.04,45.02L685.08,43.3L685.55,42.22L686.02,41.24L687.91,41.17L692.64,41.15L694.53,40.45L698.31,40.2L699.73,40.56L701.62,41.25L702.1,41.31L703.52,43.2L706.82,43.96L707.77,44.76L708.24,44.37L709.66,44.5L710.13,44.8L711.55,44.05L712.03,44.66L715.34,45.35L717.7,45.36L718.64,44.81L719.59,44.85L726.68,44.55L728.57,44.89L729.52,45.2L729.99,44.44L731.41,44.5L732.36,44.66L736.14,45.59L736.61,46.31L744.18,46.03L745.59,45.94L747.49,43.83L748.43,43.75L750.32,42.55L750.79,41.8L753.63,39.61L754.58,39.87L759.78,37.52L760.25,37.14L763.09,37.3L763.56,37.45L767.34,37.53L768.29,38.17L770.18,38.48L771.12,39.94L772.07,39.01L773.02,38.9L776.8,39.63L778.22,39.96L782.94,38.19L783.42,38.62L787.2,38.5L787.67,37.74L788.15,38.08L789.56,38.15L792.87,38.41L793.35,38.19L798.55,36.31L799.02,36.5L799.97,36.51L800.91,36.45L803.27,35.47L803.75,36.36L804.22,37.04L805.64,37.14L810.37,37.92L812.26,37.41L814.62,37.51L816.04,37.94L817.46,38.53L817.93,37.77L819.82,37.54L821.24,37.63L821.71,36.89L822.66,36.85L827.39,33.31L827.86,34.14L834.95,34.55L836.84,34.43L839.68,36.08L840.15,37.09L841.1,37.93L842.99,37.78L843.93,37.83L844.88,37.41L851.03,37.03L851.97,36.43L855.28,35.71L856.7,35.63L865.68,34.13L866.16,34.68L868.05,36.26L868.52,37.36L870.41,38.76L871.36,38.42L876.56,41.76L878.45,42.01L885.07,43.69L885.54,43.57L888.38,44.22L889.8,44.24L891.69,43.87L892.16,42.94L895,40.42L896.89,39.85L898.78,41.3L900.2,40.61L902.09,40.79L903.03,40.64L904.45,39.45L904.93,39.93L909.18,41.72L910.13,42.06L912.02,42.53L912.49,42.45L915.8,40.51L916.74,39.54L918.16,36.89L919.11,35.17L920.53,33.19L921,30.9" style="vector-effect: non-scaling-stroke; fill: none; stroke: rgb(247, 209, 61); stroke-opacity: 1; stroke-width: 2px; opacity: 1;"/></g><g class="points"/><g class="text"/></g><g class="trace scatter trace56eb44" style="stroke-miterlimit: 2; opacity: 1;"><g class="fills"/><g class="errorbars"/><g class="lines"><path class="js-line" d="M0,60.9L0.47,63.2L2.36,65.28L4.73,71.53L5.67,72.63L7.09,74.92L8.98,75.38L17.49,75.56L18.44,75.24L20.8,72.86L21.28,71.55L23.17,70.38L23.64,69.65L26,67.85L26.48,68.09L28.37,68.92L28.84,69.39L31.68,70.26L32.15,70.7L33.57,70L34.99,69.85L39.24,71.47L39.71,72.45L47.28,75.41L47.75,76.8L53.9,78.29L54.37,78.88L57.21,77.82L58.63,77.31L59.1,75.64L60.52,74.56L65.72,73.14L66.66,73.17L68.55,72.55L69.97,72.36L72.81,70.71L74.23,70.02L78.48,69L80.85,68.87L81.79,69.17L82.74,67.94L84.16,67.91L85.1,68.23L86.05,67.91L86.52,67.6L87.94,68.12L91.25,68.09L99.29,64.34L100.7,64.85L101.18,65.58L102.6,66.07L105.91,67.29L106.38,68.07L109.69,68.81L111.11,69.44L114.42,69.71L115.36,69.2L115.83,68.47L118.2,68.01L121.03,67.25L121.98,68.12L125.76,67.66L126.71,66.97L130.02,65.13L131.91,64.84L137.11,62.16L138.06,61.6L139,60.21L139.95,59.84L140.89,59.64L142.78,59.41L147.51,59.51L147.98,59.46L148.93,59.75L149.88,60.46L153.66,61.15L154.13,60.8L157.91,61.01L158.86,61.73L161.7,63.54L162.17,64.63L167.84,64.71L169.26,63.77L171.15,65.8L171.62,66.03L172.57,65.67L173.04,64.53L177.77,63.67L178.24,62.92L180.61,63.07L181.08,62.5L183.44,61.24L187.7,60.88L189.12,59.66L190.54,59.02L196.21,58.11L196.68,57.28L198.1,56.72L199.05,56.39L205.66,55.96L206.14,55.74L208.03,55.14L209.45,55.5L210.87,57.28L214.18,57.79L214.65,58.65L215.12,58.33L215.59,58.37L217.01,58.44L217.48,59.01L219.38,59.04L220.32,59.42L221.27,59.31L221.74,60.08L226.94,59.21L228.36,58.82L240.65,55.9L241.6,54.91L243.02,54.36L245.38,54.69L245.85,54.52L248.69,54.46L250.11,53.6L250.58,53.02L251.53,53.53L252,53.98L256.25,55.46L256.73,55.29L257.2,54.49L258.14,54.6L261.93,54.33L263.82,53.91L264.76,53.9L265.71,54.38L269.02,55.01L270.44,54.54L272.8,55.6L273.27,56.18L273.75,56.5L274.69,55.94L275.17,56.46L277.53,56.85L278.95,57.07L279.42,56.87L282.26,57.69L283.2,59.04L285.09,58.94L286.04,58.39L288.4,58.03L290.29,58.53L291.71,58.21L292.19,57.6L293.13,56.78L295.02,56.34L302.11,55.71L302.59,56.32L303.53,57.15L304.01,56.9L305.9,56.93L307.79,56.55L310.15,56.37L311.57,55.58L314.88,56.33L315.35,55.73L316.77,55.98L317.72,56.21L318.66,56.41L319.61,55.78L321.03,54.06L321.5,54.77L323.39,55.34L324.81,55.79L328.12,55.1L328.59,54.31L330.95,54.02L331.43,54.29L333.32,54.59L335.21,54.15L338.52,54L338.99,53.49L339.47,53.56L339.94,52.86L340.88,52.58L342.3,53.03L343.25,53.85L345.61,53.68L350.34,53.37L350.81,53.53L356.96,55.89L357.9,55.65L366.41,55.87L368.31,55.52L373.51,56.77L373.98,57.73L380.13,57.92L382.02,57.12L383.43,56.37L384.38,56.86L398.56,54.09L399.98,54.43L404.24,54.82L404.71,55.81L405.66,57.27L407.55,57.51L413.22,60.22L413.69,60.08L415.58,58.52L417,58.01L418.42,56.78L419.37,57.23L421.73,55.62L422.68,55.36L423.15,54.4L426.46,53.32L429.3,49.63L430.24,49.22L430.71,49.16L431.19,50.11L433.55,50.97L434.02,52.57L434.97,53.83L437.81,55.36L438.75,54.94L439.7,54.82L441.59,54.47L443.01,55.03L447.73,55.4L448.21,55.93L449.63,56.73L450.1,56.77L452.94,59.05L453.41,58.89L457.19,57.3L458.14,56.54L459.55,56.11L460.03,55.52L460.5,55.77L461.92,55.3L472.32,54.67L472.79,53.8L476.1,50.9L476.57,50.29L477.05,51.12L478.47,51.73L485.09,52.94L485.56,53.53L488.87,53.15L490.29,53.55L491.23,54.5L493.6,54.82L496.43,55.66L497.38,55.25L505.42,55.88L506.36,55.36L507.31,55.51L508.25,54.87L511.09,53.86L512.98,54.01L514.4,54.29L517.24,54.9L519.13,55.27L519.6,54.27L520.07,53.79L522.91,53.91L526.69,54.24L528.11,54.01L529.53,54.3L530,54.74L530.95,55.35L531.89,54.92L544.18,53.73L544.66,52.6L546.08,52.3L546.55,51.27L548.44,50.2L554.11,49.61L556.95,48.96L557.9,48.31L561.2,45.41L561.68,44.6L563.1,43.67L563.57,43.84L567.82,40.51L568.77,39.85L570.19,40.02L570.66,40.69L572.08,42.84L573.97,43.46L582.01,46.1L583.43,46.07L586.74,47.39L587.21,47.86L590.52,49.86L590.99,49.7L592.88,48.79L593.83,48.83L595.25,48.98L595.72,48.34L596.19,48.58L598.56,48.51L599.03,49.42L599.97,48.88L606.12,51L607.07,51.37L608.96,51.01L609.43,50.59L611.79,49.77L612.27,49.3L613.68,48.58L614.16,47.89L615.1,47.36L616.99,47.26L621.25,47.68L621.72,47.73L626.45,45.89L627.4,46.2L629.29,48.12L629.76,48.34L634.49,47.67L634.96,47.04L635.91,47.64L636.38,47.36L643,45.25L643.47,44.66L645.36,44.28L646.78,43.11L647.73,42.63L648.67,42.32L653.87,45.93L654.34,46.6L657.18,48.46L659.55,48.64L666.64,49.44L668.53,48.5L675.15,47.49L675.62,46.95L679.4,45.6L682.24,45.75L687.91,45.13L690.28,45.62L690.75,46.31L692.64,46.44L695.95,46.78L697.37,47.48L700.21,49.69L701.62,50L703.52,50.22L706.82,50.75L708.24,51.21L709.19,51.58L711.08,51.44L711.55,52.33L714.39,51.03L715.34,50.54L718.64,50.24L719.59,49.46L728.57,46.8L729.52,46.23L730.94,44.13L731.41,43.64L732.83,44.1L735.67,43.98L738.97,43.43L739.45,42.6L745.59,41.77L746.07,41.65L746.54,41.31L747.49,41.93L748.43,41.76L749.38,42.44L752.21,41.61L752.69,41.63L756,43.1L756.47,43.94L762.61,44.16L763.09,44.11L767.34,41.47L768.29,41.72L770.18,40.96L771.12,40.18L773.02,39.95L773.49,39.94L774.91,39.61L775.38,40.36L780.11,40.97L781.53,40.92L783.42,43.83L784.36,44.46L787.67,43.84L788.15,43.79L793.35,42.41L793.82,41.83L797.6,39.82L798.55,39.43L799.97,37.95L800.91,38.22L802.8,38.92L803.27,38.49L804.22,38.27L805.64,38.88L808.48,39.84L809.42,39.91L810.37,40.6L812.26,40.65L813.68,40.7L814.62,41.64L817.46,43.03L817.93,42.87L821.71,42.42L822.66,43.01L823.6,43.88L825.02,44.12L826.91,43.83L827.39,43.02L827.86,42.19L830.7,42.08L832.59,41.45L834.95,41.39L838.73,40.66L839.68,39.96L841.1,39.65L842.99,40.02L844.88,39.96L845.35,39.56L847.72,38.86L848.66,39.02L853.86,40.29L854.81,41.35L856.7,42.24L858.12,42.69L860.96,44.63L861.43,45.51L865.68,47.19L866.16,47.22L868.05,46.68L868.52,46.06L871.36,44.46L871.83,43.48L874.67,43.33L875.61,42.68L876.56,41.03L878.45,40.23L879.87,40.14L880.34,39.21L881.29,37.5L882.7,36.31L885.07,35.64L885.54,35.9L889.8,36.6L891.69,36.89L895,39.79L896.89,40.3L901.14,40.45L901.62,39.83L903.03,39.2L903.51,39.5L904.93,39L906.82,38.72L909.18,37.99L910.13,37.81L912.96,37.68L913.91,37.86L920.53,42.05L921,43.15" style="vector-effect: non-scaling-stroke; fill: none; stroke: rgb(251, 155, 6); stroke-opacity: 1; stroke-width: 2px; opacity: 1;"/></g><g class="points"/><g class="text"/></g><g class="trace scatter traceffcf54" style="stroke-miterlimit: 2; opacity: 1;"><g class="fills"/><g class="errorbars"/><g class="lines"><path class="js-line" d="M0,43.35L0.47,49.58L2.36,55.24L4.73,72.66L5.67,75.83L7.09,82.88L8.98,84.5L13.24,85.78L13.71,86.76L16.55,88.11L17.49,88.11L19.86,87.1L20.8,86.57L21.28,85.62L22.69,85.57L24.59,83.38L26,83.63L27.42,82.62L28.37,82.48L29.31,81.67L29.79,81.39L38.77,80.15L39.24,80.18L39.71,80.61L42.08,80.1L47.28,80.36L47.75,79.94L57.21,79.39L58.63,78.77L59.1,78.44L60.52,78.58L63.35,78.54L64.3,78.7L67.61,77.84L68.55,78.18L70.45,77.28L70.92,76.25L77.07,73.89L78.48,73.89L84.16,74.6L85.1,74.16L86.52,74.66L87.47,74.84L87.94,74.32L91.25,74.1L100.7,71.37L101.18,71.17L104.49,70.74L104.96,70.87L106.85,70.17L107.32,69.68L109.69,71.03L111.11,70.68L113,70.16L113.47,70.94L120.09,74.86L120.56,74.38L121.98,74.26L123.87,74.27L126.71,75.32L129.07,75.5L130.02,75.66L131.91,75.2L135.22,75.35L135.69,74.52L143.26,69.95L144.2,69.11L145.62,69.17L147.51,68.22L152.24,67.11L153.66,67.59L154.13,68.48L155.08,68.63L160.75,69.01L161.7,68.02L162.17,67.65L164.53,67.13L167.37,68.07L167.84,68.46L170.21,68.63L171.15,68.24L171.62,68.31L172.57,67.34L173.99,66.62L174.93,67.07L176.35,65.94L176.82,65.42L180.13,63.56L180.61,63.72L182.03,63.71L182.5,63.7L183.44,64.8L187.7,65.25L189.12,65.1L190.54,65.54L205.19,64.99L205.66,65.78L207.56,67.36L208.03,66.86L210.87,66.14L214.18,65.63L215.59,65.4L216.54,65.46L217.48,65.51L218.43,65.18L219.38,64.35L220.32,63.91L223.63,64.65L226.94,64.84L229.78,65.8L230.72,66.59L232.14,66.18L237.34,66.17L239.23,66.71L239.71,66.96L242.07,67.73L243.02,67.72L248.69,66.96L249.63,68.13L252.94,66.06L253.42,66.22L256.25,65.38L256.73,64.86L258.14,64.36L260.04,63.83L261.93,63.05L263.82,63.59L272.8,61.53L273.27,62.2L275.17,61.92L277.53,61.8L279.89,62.09L281.31,62.3L282.26,61.8L283.2,62.47L285.09,64.12L286.04,63.83L286.99,63.94L288.4,64.32L291.71,65.63L292.19,66.9L293.13,67.32L295.02,67.16L302.11,68.72L302.59,68.33L304.48,67.5L305.42,67.62L314.88,66.37L315.35,65.91L316.77,64.36L317.72,63.67L319.61,64.28L320.08,63.8L321.03,62.77L321.5,63.08L324.81,65.76L326.7,65.88L330.48,65.84L330.95,65.52L331.43,64.91L332.37,65.22L337.57,65.18L338.52,64.36L340.41,61.92L340.88,61.29L345.61,59.29L346.56,58.55L347.03,57.68L347.5,58.08L347.98,57.97L348.92,57.84L350.34,58.41L352.7,59.64L353.18,59.84L355.07,61.43L356.49,62.2L357.9,62.83L359.32,63.03L359.8,63.12L360.27,62.2L364.05,64.06L365.94,63.44L366.41,62.78L368.31,61.41L369.72,60.39L370.67,60.57L374.92,57.22L375.87,57.63L379.18,57.89L379.65,58.62L380.13,59.36L382.02,59.48L384.38,61.17L385.8,61.98L389.11,62.44L390.53,62.06L391,61.94L391.95,62.53L393.84,62.38L396.2,61.68L397.62,62.19L398.09,61.64L399.98,60.2L402.82,59.13L404.71,57.4L405.18,57.93L405.66,58.01L411.8,56.92L412.28,57.06L414.64,58.23L415.58,59.09L419.37,59.71L419.84,58.97L426.46,58.4L426.93,58.04L427.88,59.29L428.35,58.89L430.24,58.18L430.71,58.9L431.19,59.45L432.61,59.89L434.02,60.1L434.97,60.53L438.28,61.16L438.75,61.51L447.73,62.22L448.21,61.72L448.68,60.91L449.63,61.2L450.57,61.5L451.52,61.18L452.46,61.02L452.94,60.01L454.35,58.17L454.83,57.36L456.72,57.78L457.19,57L461.92,56.52L462.39,57.36L462.86,56.62L464.28,57.54L464.76,58.33L468.54,58.81L471.37,58.84L472.32,58.71L472.79,59.16L474.21,59.47L477.05,58.82L478.47,58.33L486.03,57.68L486.98,57.97L488.87,58.59L490.29,58.51L495.96,59.62L496.43,60.25L505.42,62.05L506.36,61.57L509.2,59.39L509.67,58.74L511.09,57.45L512.98,57.06L514.4,56.75L517.24,56.26L520.07,55.82L522.91,55.37L524.33,54.64L525.27,55.58L530,57L530.47,57.56L530.95,56.67L531.89,57L533.31,58.63L533.78,59.18L537.09,62.36L540.87,63.06L542.29,64.16L543.71,63.87L544.66,61.94L546.08,60.74L547.02,59.51L548.44,59.16L555.53,57.87L556.48,57.35L558.37,53.97L558.84,52.95L561.68,50.44L562.15,49.44L564.51,47.22L565.46,47.62L568.77,45.52L569.72,45.94L572.08,48.25L573.97,49.2L576.81,50.49L577.75,51.37L578.7,52.27L580.12,52.57L581.06,52.01L582.01,52.46L588.15,52.01L588.63,51.26L592.41,49.48L592.88,50.47L595.25,49.58L595.72,50.25L598.56,50.47L599.03,49.42L602.34,49.14L603.28,49.04L608.01,49.51L608.48,50.18L610.38,52.38L611.79,52.25L613.68,53.19L614.16,53.02L615.1,54.31L616.99,54.72L618.41,54.14L619.36,54.56L621.25,53.93L621.72,54.02L625.5,53.91L626.45,54.76L627.87,55.51L628.34,54.27L629.29,55.01L629.76,56.06L635.91,57.05L636.38,57.76L641.11,58.1L641.58,57.54L649.14,55.46L649.62,54.94L651.98,52.88L652.45,52.17L655.76,47.04L657.18,47L665.22,46.69L665.69,45.56L666.16,45.95L666.64,45.17L671.37,46.49L671.84,47.59L675.62,49.56L676.57,49.02L678.46,47.86L679.4,48.38L685.08,49.15L685.55,49.68L690.28,49.24L690.75,48.93L698.31,48.76L699.73,48.79L701.62,48.83L702.1,49.31L703.04,49.71L703.52,49.41L709.66,50.38L710.13,50.54L711.08,50.89L711.55,50.78L712.97,48.65L714.39,47.67L715.34,46.79L717.7,45.9L718.17,45.58L718.64,46.26L728.57,47.07L729.52,47.06L732.36,48.03L732.83,47.71L738.97,48.34L739.45,48.41L744.18,48.53L745.59,47.92L746.54,47.59L747.49,47.51L752.69,43.99L753.63,42.99L755.05,41.35L756,41.64L760.25,41.69L760.72,42.35L761.2,42.1L762.14,42.57L763.09,43.68L763.56,44.42L766.87,45.77L767.34,46.24L768.29,46.31L769.23,47.36L772.07,49.49L773.02,49.55L774.91,49.44L775.38,49.85L776.8,49.14L778.22,48.58L781.53,46.51L782,46L783.42,43.87L784.36,43.37L786.25,42.92L787.2,41.7L788.15,40.36L789.56,39.97L790.98,39.71L792.87,39.58L795.24,40.41L796.18,40.53L797.6,41.93L798.55,41.6L799.02,41.63L799.49,42.89L800.91,43.26L802.33,43.37L804.22,45.58L805.64,45.77L806.11,46.32L808,47.21L809.89,48.1L810.37,48.06L816.99,46.43L817.46,46.38L817.93,45.45L818.88,45.48L821.24,45.33L821.71,45.89L825.02,46.24L825.97,46.24L826.91,46.05L827.39,45.63L827.86,44.97L830.7,44.46L831.17,43.68L832.59,43.56L834.95,44.12L836.84,43.76L841.1,42.64L842.99,43.41L843.93,42.9L844.88,42.57L845.83,41.49L847.72,41.16L851.97,40.09L853.86,40.16L854.81,39.73L855.28,40.36L858.12,40.98L860.01,40.85L860.96,40.39L861.43,41.03L868.52,40.32L869.47,40.65L870.41,41.45L871.36,41.46L873.25,42.35L873.72,41.99L876.56,41.82L878.45,42.1L881.29,44.34L882.7,43.98L889.8,44.55L891.69,44.66L893.11,44.08L893.58,43.74L895,43.91L896.89,43.73L900.67,44.6L901.14,44.09L903.51,42.19L903.98,42.23L907.29,42.19L907.76,42.21L913.91,41.54L914.38,41.27L917.69,40.09L918.16,39.55L921,37.44" style="vector-effect: non-scaling-stroke; fill: none; stroke: rgb(237, 105, 37); stroke-opacity: 1; stroke-width: 2px; opacity: 1;"/></g><g class="points"/><g class="text"/></g><g class="trace scatter trace29f7d9" style="stroke-miterlimit: 2; opacity: 1;"><g class="fills"/><g class="errorbars"/><g class="lines"><path class="js-line" d="M0,56.78L0.47,58.67L2.36,60.43L4.73,66.25L5.67,67.42L7.09,70.3L8.98,71.06L13.71,72.32L14.66,72.82L19.86,74.31L20.8,73.22L23.64,72.83L24.11,73.23L27.42,73.53L28.37,72.8L29.79,73.8L31.2,74.24L32.62,74.65L33.57,75.09L38.77,77.69L39.24,78.39L39.71,78.89L42.08,78.41L53.43,78.9L53.9,77.92L56.26,77.51L56.74,78.18L57.21,78.68L58.63,78.53L60.52,77.78L62.41,78.39L65.25,76.57L65.72,75.97L69.97,77.21L70.45,78.24L72.81,80.42L74.23,80.8L75.65,81.62L76.59,82.6L78.48,82.76L80.85,83.16L81.79,84.08L82.74,83.93L83.21,83.52L84.16,84.06L86.05,82.18L86.52,81.42L87.94,81.11L91.25,81.86L97.87,82.19L99.29,82.09L102.6,81.9L103.07,81.91L104.96,83.23L105.91,82.42L106.38,82.72L106.85,83.94L107.8,84.87L108.27,85.7L115.36,87.34L115.83,86.67L121.98,84.32L123.87,83.44L125.76,81.32L126.71,81.42L130.02,82.06L131.91,82.56L135.69,82.5L137.11,82.88L144.2,87.55L145.62,87.53L148.46,89.27L148.93,89.66L151.77,88.41L152.24,87.83L154.13,86.25L155.08,85.07L162.17,83.19L164.53,82.27L165.95,80.27L166.9,79.86L169.73,79.41L170.21,78.15L171.62,77.66L172.57,77.93L174.93,78.22L175.88,78.14L178.24,79.95L179.66,80.43L181.08,81.71L182.03,81.52L182.5,81.68L182.97,80.96L183.44,79.73L187.7,79.74L189.12,79.25L190.54,79.78L196.68,79.28L197.15,78.68L199.05,76.85L200.94,76.45L207.56,74.58L208.03,74.01L214.18,73.55L214.65,74.11L216.54,74.63L217.01,75.12L218.43,77.17L218.9,77.74L220.32,79.01L221.27,80.2L221.74,81.01L223.63,81.73L228.36,81.57L228.83,80.78L232.14,79.86L237.34,79.98L239.71,80.8L240.65,80.1L242.07,79.57L243.02,80.18L245.38,79.63L245.85,78.71L250.11,77.77L250.58,78.01L252.47,76.59L252.94,76.82L253.89,76.64L254.84,76.64L260.98,74.07L261.93,73.3L264.76,73.12L265.71,72.26L271.38,69.51L271.86,70.1L275.17,71.21L277.53,71.53L278,71.8L278.95,70.94L281.31,71.43L282.26,71.65L286.51,72.32L286.99,72.43L288.4,72.44L290.29,73.22L291.71,72.07L292.19,72.09L293.13,71.56L295.02,71.56L297.39,71.32L300.7,71.86L303.06,72.61L303.53,72.38L305.42,73.63L305.9,73.25L309.21,73.39L310.15,72.05L313.46,71.01L314.88,70.81L318.66,69.27L319.61,69.84L321.5,68.54L321.97,68.95L326.7,70.1L328.12,70.11L330.01,71.75L330.48,72.31L333.32,75.16L335.21,76.17L337.57,75.67L338.52,75.07L340.88,74.28L342.3,74.47L346.56,73.44L347.03,74.08L347.98,74.46L348.92,74.37L359.8,73.41L360.27,74.25L363.58,76.87L364.05,76.54L369.72,75.14L370.67,74.59L373.03,72.99L373.51,72.15L374.92,71.26L375.87,70.9L379.65,70.91L380.13,69.57L385.8,68.29L386.74,67.21L389.11,65.83L390.53,65.95L391.95,66.85L392.89,67.46L396.2,67.91L397.15,67.5L398.56,66.77L399.98,66.6L404.24,66.57L404.71,66.53L405.18,66.72L405.66,65.97L410.38,66.27L410.86,67.19L411.8,67.97L412.28,68.52L414.17,69.7L414.64,69.78L417,70.41L417.95,71.79L418.42,72.56L419.37,72.48L419.84,71.67L421.26,71.24L422.68,72.27L423.15,72.84L427.88,73.7L428.35,73.01L429.3,72.16L430.24,72.33L433.55,71.03L434.02,70.25L434.97,69.01L437.81,68.41L439.7,66.15L441.59,65.74L444.43,65.29L446.32,65.45L451.52,65.35L451.99,65.41L453.41,64.47L454.35,63.63L455.77,63.56L456.72,63.86L458.14,64.43L459.08,64.59L460.5,64.34L461.92,64.69L464.76,64.21L468.54,65.12L471.37,66L472.32,65.95L475.63,67.27L476.1,68.37L477.05,70.24L478.47,71.21L485.56,71.12L486.03,70.06L486.98,70.12L487.92,69.21L488.87,68.75L490.29,68.85L491.23,68.2L493.6,67.77L497.38,66.31L500.21,66.7L501.63,67.16L502.58,67.27L504.47,67.52L505.42,68.49L507.31,69.75L508.25,69.26L509.67,69.13L510.14,69.67L512.98,70.45L513.93,71.1L514.4,71.38L517.24,71.43L519.13,71.1L519.6,70.41L522.91,69.75L524.33,69.71L528.11,70.01L528.58,71.13L532.36,70.74L533.31,70.78L535.67,71.13L536.15,71.65L537.09,71.96L540.87,72.2L544.18,70.16L544.66,69.14L548.44,66.66L554.11,65.6L556.48,63.29L556.95,62.19L558.37,60.55L558.84,59.57L561.68,57.04L562.15,56.26L563.57,55.96L564.04,56.19L565.46,55.79L566.41,55.51L568.77,55.32L569.72,55.84L571.13,56.31L571.61,56.59L572.08,57.35L573.97,57.93L577.75,59.01L578.23,59.38L578.7,59.58L580.12,59.31L585.79,56.32L586.74,55.66L588.15,55.16L588.63,55.46L591.94,54.6L592.41,54.01L595.25,52.75L595.72,52.78L596.19,52.6L598.56,52.96L599.97,53.02L601.86,53.23L608.48,56.91L608.96,56.56L610.38,55.84L611.79,55.53L613.68,55.13L614.16,55.72L616.99,55.86L617.94,55.68L621.25,56.17L621.72,56.95L629.29,58.81L629.76,59.48L635.43,61.65L635.91,62.19L636.38,62.47L638.27,62.09L643,61.08L643.47,60.42L645.36,59.4L646.78,58.99L648.67,58.33L649.14,57.72L649.62,56.86L651.04,56.08L652.93,54.32L653.4,53L655.76,50.08L657.18,50.17L659.55,49.14L665.22,49.03L666.64,47.76L668.53,47.72L672.31,48.34L672.78,48.9L674.68,49.15L675.15,49.43L676.57,50.35L677.04,50.59L679.4,50.55L682.24,50.14L683.19,50.78L685.08,50.95L686.02,52.2L687.91,52.47L692.64,53.65L694.53,53.51L697.84,52.28L698.31,51.77L701.62,52.27L702.1,52.43L703.52,53.01L706.82,52.77L709.66,52.6L710.13,52.38L711.55,52.58L712.03,52.15L712.97,53.02L714.39,52.97L718.64,51.09L719.59,51.32L726.68,52.79L728.57,53.73L731.41,56.07L732.36,55.74L732.83,55.08L735.67,54.49L736.61,53.17L738.97,52.65L739.45,52.46L743.7,52.85L748.43,51.09L749.38,50.35L752.69,46.96L753.63,46.52L756.47,45.87L758.36,45.58L761.2,45.31L762.14,45.91L763.56,47.52L765.45,47.82L771.12,48.3L771.6,48.67L773.02,48.17L773.49,48.52L774.43,48.07L774.91,47.51L776.8,43.63L778.22,42.44L780.11,41.75L781.53,42.22L786.25,42.56L787.2,42.36L793.82,38.3L794.29,37.36L797.13,37.33L797.6,37.76L799.97,39.26L800.91,38.81L803.27,39.1L803.75,39.57L805.64,39.11L806.11,39.18L808,39.13L808.48,40.41L809.89,42.83L810.37,44.21L816.04,45.61L816.51,45.96L818.88,44.68L819.35,44.91L819.82,45.22L821.24,45.18L823.6,43.82L825.02,42.67L827.86,40.37L830.7,40.27L832.59,39.75L834.95,39.87L837.79,40.57L838.73,41.33L840.63,42.1L841.1,41.93L845.35,42.01L845.83,41.35L849.61,39.85L850.55,40.58L851.97,41.15L853.86,41.19L854.81,42.02L855.28,43.55L861.43,47.04L862.85,46.76L865.68,46.67L866.16,47.11L870.41,49.5L871.36,50.19L871.83,50.69L873.25,50.84L873.72,50.98L874.67,50.3L875.61,49.93L876.08,48.5L876.56,48.11L878.45,47.65L885.07,41.22L885.54,41.93L886.96,42.48L888.38,42.62L893.58,41.59L894.52,41.32L895,40.77L896.89,40.56L900.2,41.76L900.67,41.56L903.51,43.88L903.98,43.87L911.07,42.93L912.02,42.52L920.53,33.23L921,31.68" style="vector-effect: non-scaling-stroke; fill: none; stroke: rgb(207, 68, 70); stroke-opacity: 1; stroke-width: 2px; opacity: 1;"/></g><g class="points"/><g class="text"/></g><g class="trace scatter trace531d4d" style="stroke-miterlimit: 2; opacity: 1;"><g class="fills"/><g class="errorbars"/><g class="lines"><path class="js-line" d="M0,494.29L0.47,477.5L2.36,461.35L4.73,402.93L5.67,389.82L7.09,353.94L8.98,343.09L13.24,332.78L13.71,323L19.86,268.49L20.8,262.48L21.28,257.3L22.69,252.14L24.59,237.12L26,234.34L27.42,231.34L28.37,230.24L28.84,230.36L29.31,227.4L29.79,224.47L31.2,221.66L32.62,213.65L33.57,211.36L37.35,207.49L37.82,205.48L39.71,196.59L42.08,194.42L45.86,192.27L47.28,190.05L47.75,187.49L51.06,184.64L53.9,178.57L54.37,176.87L56.74,173.35L57.21,172.06L58.63,171.07L59.1,169.81L63.35,166.87L64.3,166.47L65.72,165.58L66.66,165.33L69.97,163.61L70.45,162.45L70.92,161.06L71.86,160.71L72.81,159.62L74.23,159.43L75.65,159.01L76.59,159.21L77.07,158.85L78.48,159.19L80.85,159.06L81.32,158.2L82.74,157.87L83.21,156.87L86.52,152.32L87.47,152.24L93.14,150.53L95.03,150.73L95.98,149.33L97.87,148.67L100.7,148.53L101.18,149.01L103.07,149.86L104.01,150.51L105.91,149.52L106.38,149.35L106.85,149.41L107.32,148.62L109.69,148.38L111.11,148.39L115.83,148.73L118.2,148.86L120.09,148.1L120.56,147.31L121.98,144.51L123.87,143.72L126.71,139.99L129.07,139.14L138.06,136.95L138.53,138.09L140.89,141.17L142.78,140.85L144.2,140.29L145.62,140.78L148.93,140.7L149.88,141.23L155.08,142.83L157.91,142.69L160.75,142.32L161.7,141.67L162.17,141.31L164.53,141.61L167.37,141.8L167.84,142.39L171.15,143.85L171.62,143.76L174.93,146.44L175.88,145.98L176.82,144.97L177.77,144.17L178.24,143.83L179.66,144.34L181.08,143.99L182.03,143.67L182.97,142.35L183.44,141.42L187.7,140.66L188.17,139.58L190.54,138.38L193.84,137.45L194.32,136.75L196.21,136.52L197.15,135.75L198.1,135.33L205.19,135.08L205.66,134.37L207.56,134.87L208.03,134.33L214.18,132.72L214.65,131.58L215.59,131.56L216.54,131.62L221.74,135.1L223.63,134.59L228.36,132.89L228.83,131.95L230.72,132.02L232.14,132.62L238.76,133.45L239.23,134.14L240.65,134.66L241.6,134.14L242.07,133.14L243.02,133.2L245.85,132.84L248.69,133.31L250.58,134.04L251.05,134.54L252,133.07L252.47,131.97L253.42,132.62L253.89,131.75L256.25,132.74L256.73,133.14L258.14,133.33L260.04,131.95L261.93,132.14L263.82,132.72L264.76,133.56L265.71,132.96L267.6,132.22L268.55,132.6L269.02,133.57L270.44,134.21L271.86,134.53L272.33,134.15L273.75,132.29L274.69,132.4L275.17,131.81L277.53,131.41L278,131.99L278.95,131.7L279.89,132.67L281.31,132.18L285.09,130.24L286.04,129.93L286.99,130.86L288.4,130.82L293.13,128.97L295.02,129.51L300.7,131.56L301.17,132.18L303.06,132.56L303.53,132.22L305.42,132.67L305.9,132.52L308.26,132.36L309.21,131.38L312.52,130.86L312.99,131.3L313.46,131.37L314.88,130.75L315.83,131.06L316.3,131.07L316.77,131.39L317.72,130.28L318.66,129.18L319.61,129.75L321.97,133.21L322.92,133.48L324.81,134.58L326.7,135.38L328.59,137.5L329.06,138.23L337.57,137.73L338.52,137.22L338.99,137.07L339.47,135.98L340.88,134.6L342.3,134.91L343.25,133.68L345.61,132.97L348.92,130.1L350.34,130.75L352.23,131.6L352.7,132.79L355.07,134.79L356.49,135.23L357.9,136.49L359.32,136.74L363.58,131.64L364.05,130.88L366.41,130.63L368.31,129.75L368.78,128.55L369.72,128.28L378.23,123.57L379.18,123.71L383.43,125.4L384.38,126.42L387.69,131.1L389.11,131.47L391.95,131.1L392.89,130.93L393.84,130.18L396.2,130.08L398.09,129.84L398.56,129.49L403.76,130.45L404.24,129.89L408.49,129.25L408.97,129.63L411.33,130.05L411.8,129.56L417,130.33L417.95,129.96L419.84,128.3L421.26,127.43L421.73,126.57L422.68,127L423.15,126.25L426.46,125.28L427.4,124.15L427.88,124.33L428.82,124.11L429.3,124.12L430.71,122.87L431.19,122.26L438.28,124.13L438.75,125.28L444.43,129.4L446.32,129.54L448.21,130.27L448.68,131.19L450.1,131.38L450.57,131.34L452.46,131.28L452.94,130.63L455.77,130.53L456.72,130.05L457.19,129.95L458.14,128.7L461.92,125.54L462.39,124.44L462.86,123.7L464.28,123.25L464.76,123.59L468.54,124.09L471.37,124.66L472.32,124.39L477.05,125.68L478.47,125.33L482.72,125.15L483.19,125.8L486.03,127.34L486.98,128.21L488.87,129.38L490.29,129.87L493.6,130.2L494.54,130.02L496.43,130.24L497.38,129.83L501.63,131.12L502.58,131.98L508.25,133.55L509.2,133.58L513.93,133.53L514.4,133.01L519.6,132.41L520.07,133.15L528.11,133.21L528.58,132.69L531.89,131.43L532.36,130.78L533.78,128.85L534.26,127.91L535.67,127.1L536.15,125.8L537.09,124.82L540.87,124.22L542.29,123.23L543.71,122.8L544.66,123.21L546.08,123.18L547.02,123.54L548.44,124.23L554.11,126.1L555.53,127.43L558.37,130.29L558.84,131.68L564.51,143.46L565.46,144.14L566.88,146.19L567.82,146.28L569.72,145.87L570.19,146.3L571.61,146.61L572.08,146.41L580.59,147L581.06,146.3L585.79,144.56L586.74,144.66L588.63,141.38L590.05,140.62L591.94,139.52L592.41,138.6L595.72,135.66L596.19,135.96L598.56,136.07L599.03,136.85L599.97,136.61L601.86,137.32L603.28,138.4L605.17,138.86L610.38,138.03L611.79,138.69L612.27,139.03L613.21,138.64L614.16,137.51L615.1,138.15L617.94,138.14L618.41,137.68L619.83,136.74L621.25,136.91L621.72,136.44L624.09,136.49L625.5,137.16L626.45,137.31L627.87,137.57L628.34,137.04L629.76,138.07L631.18,138.6L633.54,139.38L634.49,140.58L635.91,140.65L636.38,139.99L640.16,138.65L641.11,138.37L641.58,137.58L643,137.17L643.94,136.84L645.36,136.4L647.73,136.15L648.67,136.76L649.62,137.28L651.04,136.69L652.93,136.29L653.4,136.6L653.87,136.74L654.34,135.66L657.18,132.44L659.55,131.45L665.69,131.27L666.16,130.45L666.64,130.06L668.53,130.2L669.95,129.03L670.42,129.83L672.31,130.62L672.78,131.22L676.57,130.05L677.04,130.6L679.4,131.56L682.24,131.79L685.08,132.13L685.55,132.83L686.02,134.02L687.91,133.73L692.64,132.64L694.53,133.17L697.37,132.77L697.84,132.45L698.31,131.67L699.73,131.3L700.21,130.46L701.62,130.75L703.52,133.64L706.82,133.58L707.77,132.87L708.24,133.52L709.19,133.3L709.66,134.52L712.03,134.99L712.5,135.93L714.39,136.43L715.34,136.46L718.17,137.28L718.64,136.39L719.59,135.35L722.9,134.63L723.85,133.3L726.21,131.83L726.68,129.85L728.57,128.54L729.99,127.91L730.94,128.09L732.83,132.23L735.67,135.03L736.61,141.31L738.97,144.13L739.45,146.62L743.7,149.6L744.18,152.69L745.59,155.94L747.49,164.16L748.43,166.74L750.79,176.14L751.27,178.84L756.47,200.67L758.36,202.74L759.78,204.89L760.25,204.85L762.61,199.64L763.09,196.71L763.56,195.54L765.45,195.88L766.4,195.82L766.87,194.56L768.29,192.28L769.23,191.53L771.12,189.79L771.6,187.55L773.49,178.97L773.96,177.29L776.33,169.75L776.8,167.61L779.64,163.51L780.11,161.58L782.47,160.38L782.94,159.86L786.25,160.3L787.2,159.69L788.15,158.25L789.56,157.5L790.04,158.81L790.98,159.09L794.29,161.94L795.24,163.29L796.18,163.7L797.13,161.91L797.6,159.89L798.55,159.39L800.91,159.11L802.33,159.99L804.22,165.39L805.64,165.81L806.11,166.88L808,167.13L809.42,166.87L809.89,167.17L812.26,167.68L813.68,167.89L816.04,167.53L816.51,165.88L816.99,164.27L817.46,164.79L817.93,164.64L819.35,164.63L819.82,165.32L821.71,167.12L822.66,167.99L825.02,164.58L825.97,163.69L827.86,156.11L830.7,155.93L831.17,156.99L832.59,156.85L837.79,159.29L838.73,160.57L840.63,160.86L841.1,160.64L844.88,156.86L845.35,157.58L848.66,158.59L849.61,157.24L851.97,152.81L853.86,153.32L856.7,154.5L858.12,155.44L865.21,155.38L865.68,155.54L866.16,156.57L867.57,156.3L871.83,157.58L873.25,156.1L876.08,153.19L876.56,151.58L879.87,149.67L880.34,150.53L881.29,150.4L882.7,149.36L884.59,146.9L885.07,145.12L886.01,140.19L886.96,139.63L889.8,137.95L891.69,138.15L895,145.24L896.89,145.92L900.2,149.52L900.67,151.24L902.09,152.19L903.03,153.28L904.93,158.12L906.82,158.77L907.76,159.62L909.18,159.8L911.07,159.2L912.02,158.58L917.69,146.96L918.16,144.11L921,133.47" style="vector-effect: non-scaling-stroke; fill: none; stroke: rgb(165, 44, 96); stroke-opacity: 1; stroke-width: 2px; opacity: 1;"/></g><g class="points"/><g class="text"/></g><g class="trace scatter trace2de286" style="stroke-miterlimit: 2; opacity: 1;"><g class="fills"/><g class="errorbars"/><g class="lines"><path class="js-line" d="M0,560.6L0.47,546.11L2.36,531.98L4.73,479.12L5.67,466.82L7.09,432.19L8.98,421.4L13.24,411L13.71,400.97L21.28,329.7L22.69,322.86L24.59,301.75L26,297.96L27.42,291.57L28.37,290.48L28.84,290.01L29.31,287.98L29.79,286.72L31.2,285.21L33.57,274.57L34.99,271.8L37.35,268.47L37.82,265.64L39.71,253.01L42.08,249.65L45.86,246.41L47.28,242.8L47.75,238.82L51.06,234.87L53.43,227.98L53.9,224.81L54.37,222.38L56.26,219.73L57.21,215.28L58.63,213.34L59.1,211.31L60.52,209.52L63.35,205.46L64.3,203.8L65.72,201.26L66.66,201.23L68.55,200.82L69.97,200.7L71.86,202.1L72.34,201.49L72.81,200.59L74.23,200.44L76.59,199.43L77.07,199.83L78.48,200.11L80.85,198.44L83.21,195.09L84.16,194.34L85.58,191.72L86.05,190.39L87.47,188.25L87.94,187.59L93.14,186.2L95.03,185.62L95.98,183.47L97.87,181.95L100.7,178.83L101.18,177.74L103.07,175.69L104.01,173.84L105.91,169.63L106.38,168.82L107.32,167.72L107.8,167.46L108.27,165.75L109.69,163.97L115.83,162.14L118.2,161.54L119.62,161.51L120.09,162.35L121.03,163.31L121.98,164.08L126.71,164.19L129.07,165.22L130.02,166.21L131.91,166.74L135.69,166.96L137.11,166.64L138.06,166.42L138.53,165.37L139.95,165.79L140.42,166.29L143.26,163.8L144.2,163.77L147.51,163.03L147.98,162.55L151.77,159.29L152.24,159.9L155.08,157.77L157.91,156.84L165,154.75L165.95,154.16L171.15,155.92L171.62,156.4L173.04,156.58L173.99,156.61L174.93,156.47L175.88,157.14L176.82,156.9L177.77,156.02L178.24,155.51L179.66,155.74L180.61,155.03L181.08,154L182.97,153.31L183.44,152.72L193.84,152.95L194.32,152.3L196.21,151.66L196.68,150.44L198.1,147.58L199.05,147.25L200.94,146.69L205.19,146.96L208.03,144.48L209.45,143.46L210.87,142.81L214.18,143.78L215.12,143.48L215.59,143.24L217.48,143.08L218.43,143.43L219.38,144.08L220.32,144.36L221.74,146.32L223.63,146.72L228.36,148.24L228.83,149.21L232.14,150.24L237.34,151.3L245.85,152.82L248.69,152.73L250.11,151.49L250.58,150.18L251.05,149.75L251.53,150.34L252.94,149.16L253.42,149.68L253.89,150.09L254.84,149.34L260.04,148.87L260.98,149.44L265.71,149.93L266.66,149.12L267.6,148.78L268.55,147.46L270.44,146.5L271.38,146.6L271.86,146.65L272.33,145.65L274.69,143.7L275.17,143.58L278.95,142.39L279.42,141.47L285.09,140.4L286.04,139.74L286.99,139.93L288.4,140.09L290.77,140.86L291.71,141.5L292.19,141.95L293.13,141.75L297.39,142.78L300.7,142.83L302.59,142.89L303.06,142.37L305.42,142.41L305.9,143.48L309.21,145.27L310.15,146.39L313.46,150.53L314.88,150.91L318.19,152.14L318.66,151.52L321.97,147.74L322.92,147.25L324.81,145.57L326.7,144.64L329.06,142.53L330.01,141.13L332.85,138.22L333.32,138.51L337.57,139.7L338.52,140.78L340.88,144.92L342.3,145.7L345.61,146L346.56,146.03L348.92,147.55L350.34,146.86L352.23,145.25L352.7,145.71L353.18,145.22L354.12,145.58L356.49,145.98L356.96,145.68L357.9,146.11L359.32,145.6L360.27,145.03L361.21,145.14L364.05,140.43L365.94,140.18L369.72,138.87L370.67,138.4L373.03,138.35L373.51,139.15L375.87,138.38L376.82,138.36L379.18,138.86L379.65,139.25L382.02,139.74L382.96,139.97L384.38,139.94L385.8,140.38L387.69,143.22L389.11,142.94L392.89,141.06L393.84,140.34L397.15,139.67L397.62,138.91L399.98,137.86L402.82,136.82L404.24,135.38L404.71,134.45L408.97,132.83L410.38,132.55L411.8,132.82L412.28,133.21L414.17,133.64L414.64,134.7L417,135.31L417.95,136.57L419.37,138.28L419.84,138.76L423.15,140.59L426.46,141.4L429.3,144.93L430.24,144.42L433.08,141.8L433.55,140.71L434.02,140.88L434.97,140.09L438.28,139.5L438.75,138.79L439.7,138.31L441.59,138.53L443.01,138.93L444.43,137.75L448.21,136.54L448.68,136.17L452.46,136.33L452.94,137.58L454.83,138.93L455.77,140.02L456.72,141.03L457.19,142.94L459.55,145.03L460.03,144.56L462.86,144.81L464.28,144.92L464.76,145.51L468.54,145.4L472.32,146.22L472.79,145.04L475.63,141.46L476.1,140.91L477.05,137.85L478.47,136.35L482.25,136.18L482.72,135.14L484.14,132.8L485.09,132.4L487.92,133.04L488.39,133.57L488.87,134.03L490.29,134.27L491.23,135.23L493.6,134.89L496.43,136.98L497.38,136.67L500.21,137.11L500.69,137.99L502.58,141.06L504.47,141.42L509.2,142.58L509.67,142.01L510.62,141.53L511.09,142.02L512.98,142.17L513.93,143.03L514.4,143.77L517.24,143.44L519.13,144.4L519.6,145.61L520.07,146.37L522.91,146.87L526.69,147.6L528.11,146.78L532.36,143.49L533.31,143.29L533.78,144.06L534.26,143.48L535.67,142.89L537.09,140.2L540.87,139.43L541.82,138.63L542.29,136.7L544.18,135.83L544.66,136.34L547.02,137.96L548.44,138.15L555.53,140.31L556.48,141.05L557.9,142.88L558.37,144.02L561.2,149.37L561.68,151.82L564.51,157.74L565.46,159.26L567.82,162.37L568.77,162.51L570.66,161.9L571.13,161.15L572.08,159.58L573.97,158.37L578.7,156.73L580.12,156.99L582.01,155.73L583.43,154.81L586.74,152.46L587.21,151.44L588.63,151.8L590.05,152.7L591.94,154.95L592.41,155.7L595.72,157.99L596.19,158.25L599.97,157.65L601.86,156.54L603.28,155.22L605.17,154.78L608.48,152.51L608.96,152.08L613.21,153.98L613.68,153.77L615.1,152.36L616.99,151.34L619.83,149.27L621.25,149.13L621.72,149.8L624.09,149.77L625.5,149.62L626.45,150.25L629.76,150.67L631.18,150.4L634.49,149.43L634.96,148.94L636.38,148.34L638.27,147.73L641.11,146.68L641.58,147.41L643.94,149.76L645.36,149.69L647.73,150.26L648.67,149.58L649.62,148.2L651.04,148.14L653.4,150.16L653.87,150.67L654.34,151.59L655.29,151.43L655.76,152.4L657.18,153.44L666.16,155.31L666.64,156.16L671.37,158.76L671.84,158.31L672.78,158.31L673.73,158.54L675.15,158.25L675.62,157.39L678.46,155.26L679.4,154.67L682.24,153.01L683.19,151.55L686.02,149.71L687.91,148.48L697.37,148.56L697.84,147.96L700.21,146.12L701.62,146.65L703.04,148.14L703.52,148.16L706.82,147.4L707.3,148.09L707.77,148.2L708.24,147.38L709.66,146.56L710.13,145.34L711.55,142.59L712.03,143.12L714.39,141.57L715.34,141.15L718.17,141.54L718.64,142.11L722.9,141.77L723.85,141.09L726.68,141.07L728.57,142.01L729.99,144.88L730.94,144.67L732.36,145.37L732.83,146.15L736.14,147.41L736.61,148.35L738.97,149.49L739.45,151.49L743.7,153.32L744.18,154.63L745.59,155.6L746.07,157.07L748.43,166.03L749.38,168.34L755.05,185.52L756,185.92L756.47,186.47L758.36,187.42L759.78,188.91L760.25,189.06L761.2,189.33L762.14,188.97L763.09,189.28L763.56,189.66L766.4,190.1L766.87,188.24L768.29,184.72L769.23,183.4L771.12,181.8L771.6,182.08L773.02,184.22L773.49,184.34L774.43,184.95L774.91,185.5L776.33,186.47L776.8,186.05L779.64,184.42L780.11,183.04L782.47,181.69L782.94,179.82L784.36,176.32L786.25,174.78L789.56,172.09L790.04,170.76L797.13,163.17L797.6,161.65L799.49,160.84L799.97,161.55L802.33,164.57L802.8,166.03L806.11,173.03L808,173.98L808.48,173.65L809.42,174.62L810.37,177.46L812.26,177.99L814.62,178.79L816.04,179.35L817.46,178.29L817.93,178.56L818.88,178.7L819.35,177.95L822.66,173.74L823.13,172.59L823.6,171.42L825.02,170.27L826.44,167.89L826.91,166.65L827.86,164.52L830.7,163.35L831.17,162.15L832.59,161.88L837.79,164.5L838.73,166.43L840.15,167.71L840.63,169.25L841.1,170.43L842.99,170.8L844.88,169.55L845.35,171.24L845.83,171.44L847.72,170.8L851.03,170.76L851.97,170L854.81,170.08L855.28,170.19L858.12,169.21L860.01,169.45L865.21,167.44L865.68,167.87L866.16,169.01L867.57,169.12L869.47,171.4L869.94,171.35L871.83,172.32L873.25,171.21L873.72,171.04L874.67,171.56L876.08,172.52L876.56,173.25L880.81,172.6L881.29,171.24L884.12,167.81L884.59,166.09L885.54,165.62L886.01,165.75L886.96,165.81L888.38,167.01L892.63,171.18L893.11,172.39L895,177.57L896.89,179.51L900.67,182.29L901.14,181.83L901.62,182.45L902.09,182.08L903.03,181.07L903.98,180.65L904.45,181.23L904.93,180.35L906.82,179.45L907.76,177.66L909.18,176.82L912.96,174.17L913.91,174.35L917.69,177.77L918.16,179.42L920.53,183.84L921,186.66" style="vector-effect: non-scaling-stroke; fill: none; stroke: rgb(120, 28, 109); stroke-opacity: 1; stroke-width: 2px; opacity: 1;"/></g><g class="points"/><g class="text"/></g><g class="trace scatter tracea9358a" style="stroke-miterlimit: 2; opacity: 1;"><g class="fills"/><g class="errorbars"/><g class="lines"><path class="js-line" d="M0,587.1L0.47,579.09L2.36,571.15L4.73,540.29L5.67,532.81L7.09,511L8.98,503.96L13.24,497.03L13.71,490.22L20.8,440.23L21.28,434.03L22.69,429.03L23.17,423.53L24.59,408.82L26,404.2L27.42,397.27L28.37,394.79L32.62,373.67L33.57,370.81L34.99,367.1L37.35,364.51L39.71,346.27L42.08,343.02L45.86,340.07L47.28,337.68L47.75,334.05L51.06,331.4L53.43,325.46L53.9,323.04L54.37,319.57L56.26,315.97L57.21,308.81L58.63,304.7L59.1,301.01L60.52,298.12L62.41,295.07L63.35,291.9L66.66,281.36L67.61,280.25L69.97,279.67L70.45,278.42L72.81,272.44L74.23,271.33L75.17,269.98L75.65,267.65L78.48,265.38L80.85,264.44L85.1,259.71L85.58,258.89L87.94,255.32L91.25,253.95L95.5,251.12L95.98,249.86L100.7,247.38L101.18,245.98L102.6,245.62L103.07,244.44L104.49,242.6L104.96,240.78L106.38,237.39L106.85,235.5L109.69,230.79L111.11,229.85L113,228.73L113.47,226.58L115.83,221.84L118.2,220.66L120.56,219.88L121.03,219.31L121.98,218.78L123.87,219.57L130.02,219.53L131.91,218.58L138.06,215.93L138.53,215.28L140.89,212.55L142.78,210.71L144.2,209.99L145.62,208.83L148.93,207.87L149.88,206.52L152.24,204.72L153.66,203.47L155.08,203.61L157.91,204.21L165.95,207.04L166.9,206.15L167.84,205.39L169.26,205.48L169.73,205.39L170.21,204.24L173.04,203.6L173.99,203.13L176.35,201.54L176.82,199.52L177.77,198.95L178.24,197.66L180.61,195.82L181.08,194.96L182.03,194.57L182.5,192.98L182.97,193.04L183.44,191.79L187.7,191.36L188.17,190.26L189.12,189.14L190.54,188.89L193.84,188.16L194.32,186.71L196.68,184.33L197.15,183.53L199.05,182.74L200.94,182.47L205.19,182.87L205.66,181.95L206.14,182.17L206.61,181.41L208.03,180.14L209.45,180.44L214.18,179.2L214.65,179.47L217.01,179.12L217.48,177.69L218.43,176.69L218.9,177.28L219.38,176.95L220.32,177.7L221.27,177.29L221.74,178.11L223.63,178.08L230.72,176.88L232.14,176.05L238.76,174.68L239.23,173.7L240.65,171.09L241.6,170.16L243.02,167.71L245.38,167.33L245.85,167.4L248.69,166.98L250.11,165.4L250.58,163.97L252.47,161.76L252.94,162.1L253.89,161.52L254.84,161.03L258.14,159.18L260.04,160.23L261.93,162.66L263.82,162.93L264.76,163.92L265.71,164.84L266.66,164.44L267.6,165.25L269.02,166.57L270.44,166.71L271.86,166.45L272.33,165.76L273.75,163.62L274.69,164.11L275.17,163.48L277.53,163.1L278,163.04L278.95,163.76L282.26,161.91L283.2,161.77L284.15,161.67L285.09,160.64L292.19,158.74L293.13,159.61L297.39,160.98L300.7,160.57L301.17,160.39L302.11,160.91L303.53,160.8L304.01,160.21L305.42,160.82L305.9,160.8L312.99,160.7L313.46,161.22L318.66,160.63L319.61,159.61L321.03,159.21L321.5,159.48L323.39,158.78L324.81,158.58L329.06,157.29L330.01,156.77L330.95,156.36L331.43,156.98L335.21,156L337.1,155.89L340.41,150.7L340.88,149.9L343.25,147.72L345.61,147.32L347.03,146.77L347.5,146.23L347.98,145.38L348.92,145.44L352.23,144.31L352.7,144.93L356.49,145.44L356.96,146.4L357.9,146.42L359.32,145.46L360.27,145.43L361.21,145.58L362.16,147.22L363.1,148.12L364.05,149.52L365.94,149.09L368.78,148.54L369.72,147.92L373.03,146.41L373.51,145.84L373.98,144.51L374.92,144.54L378.23,144.23L379.18,144.1L380.13,143.19L382.02,143.13L383.43,143.24L384.38,143.21L386.74,143.09L387.22,142.81L389.11,143.4L390.53,143.87L391.95,143.62L392.89,143.52L396.2,143.93L397.15,143.7L398.56,144.35L399.98,144.87L408.97,146.07L410.38,144.84L410.86,144.9L411.33,143.95L411.8,143.01L412.28,143.84L414.64,142.91L415.58,142.26L417.95,142L418.42,141.43L423.15,137.16L426.46,136.38L428.35,133.65L428.82,133.15L430.24,132.05L430.71,132.63L431.19,132.33L432.61,132.76L433.55,133.23L434.02,132.45L438.75,132.28L439.7,131.59L447.73,131.59L448.21,132.15L448.68,132.51L449.63,132.28L450.57,132.86L451.52,133.77L452.94,134.44L453.41,134.03L454.83,133.48L455.77,132.96L460.03,131.9L460.5,130.82L464.76,131.71L468.54,132.03L470.43,131.53L471.37,130.79L472.79,130.6L474.21,130.46L474.68,129.52L475.63,129.66L477.05,129.49L478.47,129.85L483.19,131.12L484.14,131.63L488.87,135.92L490.29,135.73L491.23,135.95L493.6,136.33L495.96,137.74L496.43,137.49L497.38,136.46L500.21,135.98L500.69,135.41L501.63,135.98L505.42,134.8L506.36,134.02L507.31,133.35L508.25,131.25L509.67,130.32L510.14,129.24L510.62,127.52L511.09,127.66L512.98,126.3L513.93,125.67L514.4,124.41L518.18,122.84L519.13,122.17L520.07,120.67L522.91,120.7L528.11,120.68L528.58,121.38L530.47,122.4L530.95,122.71L533.78,123.83L534.26,123.29L537.09,121.98L540.87,122.34L542.29,123.92L543.71,124.17L544.66,125.04L546.08,124.64L547.02,124.28L548.44,123.95L557.9,124.46L558.37,124.11L561.68,127.42L562.15,129.88L564.51,137.22L565.46,138.68L566.88,140.37L567.82,140.67L572.08,145.1L573.97,145.35L578.23,146.19L578.7,145.61L580.59,145.41L581.06,144.37L582.01,144.05L583.43,142.67L588.15,140.53L588.63,139.62L590.52,139.12L590.99,140.09L594.77,141.73L595.25,141.57L596.19,139.5L598.56,139.46L605.17,138.99L606.12,137.67L608.48,137.13L608.96,137.85L610.38,138.74L611.79,139.16L613.21,138.81L613.68,137.74L615.1,138.12L616.99,138.4L618.41,136.92L619.36,136.59L621.72,136.46L624.09,136.54L625.5,137.16L626.45,137.16L627.87,137.77L628.34,137.56L629.76,136.89L631.18,136.77L634.49,137.68L634.96,137.26L636.38,135.94L638.27,135.39L640.16,134.86L641.11,136.06L643.94,136.87L645.36,136.29L646.78,136.16L647.25,134.45L648.67,135.03L649.14,136.17L651.04,135.28L651.98,134.95L653.4,134.06L653.87,134.75L655.76,134.81L657.18,135L665.69,136.21L666.16,136.9L666.64,137.68L668.53,138.37L670.42,139.28L671.37,138.87L673.73,135.92L674.68,135.21L675.62,133.66L676.57,134.4L677.51,135.81L678.46,135.81L682.24,136.8L683.19,135.59L685.55,135.97L686.02,134.96L690.28,136.23L690.75,135.95L697.37,134.48L697.84,134.01L698.31,134.66L699.73,135.19L702.1,136.37L702.57,137.23L707.77,140.46L708.24,139.68L709.66,138.82L710.13,138.08L712.03,137.06L712.5,136.64L714.39,137.39L715.34,138.16L718.17,138.92L718.64,138.06L719.59,136.86L722.9,135.88L723.85,133.43L726.21,133.06L726.68,131.77L728.57,130.48L729.99,130.37L730.94,129.98L731.41,130.2L732.36,132.12L732.83,133.54L735.67,134.77L736.61,139.45L738.97,141.18L739.45,143.5L743.7,145.75L744.18,148.24L745.59,150.58L750.79,164.59L751.27,166.61L752.69,171.58L753.63,174L756.47,182.38L758.36,184.16L759.78,186.51L760.25,186.26L762.14,184.39L762.61,182.56L763.56,180.11L765.45,178.8L767.34,178.15L768.29,178.74L769.23,179.07L770.18,177.84L772.07,175.44L773.02,173.15L776.33,165.81L776.8,165.76L780.11,165.38L781.53,165.41L782.94,166.26L783.42,165.96L784.36,166.5L786.25,166.05L787.67,165.63L788.15,165.63L790.04,165.84L790.98,164.97L792.87,163.76L793.35,162.45L795.24,162.07L796.18,162.78L798.55,166.26L799.02,166.62L800.91,164.8L802.33,164.84L803.75,163.97L804.22,163.81L806.11,163.7L808,162.88L809.42,161.53L809.89,161.23L812.26,161.84L813.68,161.73L817.46,161.92L817.93,162.92L818.88,162.42L819.35,163.38L822.66,164.94L823.13,165.11L823.6,166.04L825.02,166.77L826.44,168.15L826.91,169.92L827.86,171.56L830.7,172.22L832.59,170.3L834.95,170.9L839.68,170.88L840.15,170.04L841.1,167.83L842.99,167.18L845.83,165.52L847.72,164.67L849.61,164.37L850.55,165.05L851.97,165.15L853.86,164.62L858.12,159.47L860.01,158.38L861.43,157.54L862.85,156.96L867.57,157.1L868.05,158.2L871.36,155.48L871.83,156.83L873.25,157L873.72,158.08L874.67,158.61L875.61,160.08L878.45,162.76L879.87,163.93L881.29,164.65L882.7,165.3L884.59,166.89L885.07,168.39L886.01,169.01L886.96,168.58L892.16,165.55L892.63,164.28L893.58,161.98L894.52,160.49L898.31,159.05L898.78,158.28L900.67,156.09L901.14,156.86L902.09,155.84L903.03,155.76L904.93,159.01L906.82,160.44L907.76,163.51L909.18,165.11L910.6,168.34L911.07,169.94L913.91,175.7L914.38,176.89L919.11,180.34L920.53,180.4L921,180.19" style="vector-effect: non-scaling-stroke; fill: none; stroke: rgb(74, 12, 107); stroke-opacity: 1; stroke-width: 2px; opacity: 1;"/></g><g class="points"/><g class="text"/></g></g></g><g class="overplot"/><path class="xlines-above crisp" d="M100,718.5H1023M100,99.5H1023" style="fill: none; stroke-width: 1px; stroke: rgb(189, 189, 189); stroke-opacity: 1;"/><path class="ylines-above crisp" d="M100.5,100V718M1022.5,100V718" style="fill: none; stroke-width: 1px; stroke: rgb(189, 189, 189); stroke-opacity: 1;"/><g class="overlines-above"/><g class="xaxislayer-above"><g class="xtick"><text text-anchor="middle" x="0" y="747.8" transform="translate(192.72,0)" style="font-family: 'Open Sans', verdana, arial, sans-serif; font-size: 24px; fill: rgb(42, 63, 95); fill-opacity: 1; white-space: pre;">2k</text></g><g class="xtick"><text text-anchor="middle" x="0" y="747.8" transform="translate(287.28,0)" style="font-family: 'Open Sans', verdana, arial, sans-serif; font-size: 24px; fill: rgb(42, 63, 95); fill-opacity: 1; white-space: pre;">4k</text></g><g class="xtick"><text text-anchor="middle" x="0" y="747.8" transform="translate(381.84,0)" style="font-family: 'Open Sans', verdana, arial, sans-serif; font-size: 24px; fill: rgb(42, 63, 95); fill-opacity: 1; white-space: pre;">6k</text></g><g class="xtick"><text text-anchor="middle" x="0" y="747.8" transform="translate(476.4,0)" style="font-family: 'Open Sans', verdana, arial, sans-serif; font-size: 24px; fill: rgb(42, 63, 95); fill-opacity: 1; white-space: pre;">8k</text></g><g class="xtick"><text text-anchor="middle" x="0" y="747.8" transform="translate(570.96,0)" style="font-family: 'Open Sans', verdana, arial, sans-serif; font-size: 24px; fill: rgb(42, 63, 95); fill-opacity: 1; white-space: pre;">10k</text></g><g class="xtick"><text text-anchor="middle" x="0" y="747.8" transform="translate(665.51,0)" style="font-family: 'Open Sans', verdana, arial, sans-serif; font-size: 24px; fill: rgb(42, 63, 95); fill-opacity: 1; white-space: pre;">12k</text></g><g class="xtick"><text text-anchor="middle" x="0" y="747.8" transform="translate(760.07,0)" style="font-family: 'Open Sans', verdana, arial, sans-serif; font-size: 24px; fill: rgb(42, 63, 95); fill-opacity: 1; white-space: pre;">14k</text></g><g class="xtick"><text text-anchor="middle" x="0" y="747.8" transform="translate(854.63,0)" style="font-family: 'Open Sans', verdana, arial, sans-serif; font-size: 24px; fill: rgb(42, 63, 95); fill-opacity: 1; white-space: pre;">16k</text></g><g class="xtick"><text text-anchor="middle" x="0" y="747.8" transform="translate(949.19,0)" style="font-family: 'Open Sans', verdana, arial, sans-serif; font-size: 24px; fill: rgb(42, 63, 95); fill-opacity: 1; white-space: pre;">18k</text></g></g><g class="yaxislayer-above"><g class="ytick"><text text-anchor="end" x="95.2" y="8.399999999999999" transform="translate(0,650.75)" style="font-family: 'Open Sans', verdana, arial, sans-serif; font-size: 24px; fill: rgb(42, 63, 95); fill-opacity: 1; white-space: pre;">0.74</text></g><g class="ytick"><text text-anchor="end" x="95.2" y="8.399999999999999" transform="translate(0,567.4200000000001)" style="font-family: 'Open Sans', verdana, arial, sans-serif; font-size: 24px; fill: rgb(42, 63, 95); fill-opacity: 1; white-space: pre;">0.76</text></g><g class="ytick"><text text-anchor="end" x="95.2" y="8.399999999999999" transform="translate(0,484.08)" style="font-family: 'Open Sans', verdana, arial, sans-serif; font-size: 24px; fill: rgb(42, 63, 95); fill-opacity: 1; white-space: pre;">0.78</text></g><g class="ytick"><text text-anchor="end" x="95.2" y="8.399999999999999" transform="translate(0,400.75)" style="font-family: 'Open Sans', verdana, arial, sans-serif; font-size: 24px; fill: rgb(42, 63, 95); fill-opacity: 1; white-space: pre;">0.8</text></g><g class="ytick"><text text-anchor="end" x="95.2" y="8.399999999999999" transform="translate(0,317.41999999999996)" style="font-family: 'Open Sans', verdana, arial, sans-serif; font-size: 24px; fill: rgb(42, 63, 95); fill-opacity: 1; white-space: pre;">0.82</text></g><g class="ytick"><text text-anchor="end" x="95.2" y="8.399999999999999" transform="translate(0,234.09)" style="font-family: 'Open Sans', verdana, arial, sans-serif; font-size: 24px; fill: rgb(42, 63, 95); fill-opacity: 1; white-space: pre;">0.84</text></g><g class="ytick"><text text-anchor="end" x="95.2" y="8.399999999999999" transform="translate(0,150.76)" style="font-family: 'Open Sans', verdana, arial, sans-serif; font-size: 24px; fill: rgb(42, 63, 95); fill-opacity: 1; white-space: pre;">0.86</text></g></g><g class="overaxes-above"/></g></g><g class="polarlayer"/><g class="ternarylayer"/><g class="geolayer"/><g class="funnelarealayer"/><g class="pielayer"/><g class="treemaplayer"/><g class="sunburstlayer"/><g class="glimages"/><defs id="topdefs-a1d5ce"><g class="clips"/><clipPath id="legenda1d5ce"><rect width="148" height="250" x="0" y="0"/></clipPath></defs><g class="layer-above"><g class="imagelayer"/><g class="shapelayer"/></g><g class="infolayer"><g class="legend" pointer-events="all" transform="translate(1040.42, 100)"><rect class="bg" shape-rendering="crispEdges" width="148" height="250" x="0" y="0" style="stroke: rgb(68, 68, 68); stroke-opacity: 1; fill: rgb(255, 255, 255); fill-opacity: 1; stroke-width: 0px;"/><g class="scrollbox" transform="translate(0, 0)" clip-path="url('#legenda1d5ce')"><g class="groups"><g class="traces" transform="translate(0, 22.1)" style="opacity: 1;"><text class="legendtext user-select-none" text-anchor="start" x="40" y="9.360000000000001" style="font-family: 'Open Sans', verdana, arial, sans-serif; font-size: 24px; fill: rgb(42, 63, 95); fill-opacity: 1; white-space: pre;">RMSprop</text><g class="layers" style="opacity: 1;"><g class="legendfill"/><g class="legendlines"><path class="js-line" d="M5,0h30" style="fill: none; stroke: rgb(247, 209, 61); stroke-opacity: 1; stroke-width: 2px;"/></g><g class="legendsymbols"><g class="legendpoints"/></g></g><rect class="legendtoggle" pointer-events="all" x="0" y="-17.1" width="142.03125" height="34.2" style="cursor: pointer; fill: rgb(0, 0, 0); fill-opacity: 0;"/></g><g class="traces" transform="translate(0, 56.300000000000004)" style="opacity: 1;"><text class="legendtext user-select-none" text-anchor="start" x="40" y="9.360000000000001" style="font-family: 'Open Sans', verdana, arial, sans-serif; font-size: 24px; fill: rgb(42, 63, 95); fill-opacity: 1; white-space: pre;">Adam</text><g class="layers" style="opacity: 1;"><g class="legendfill"/><g class="legendlines"><path class="js-line" d="M5,0h30" style="fill: none; stroke: rgb(251, 155, 6); stroke-opacity: 1; stroke-width: 2px;"/></g><g class="legendsymbols"><g class="legendpoints"/></g></g><rect class="legendtoggle" pointer-events="all" x="0" y="-17.1" width="142.03125" height="34.2" style="cursor: pointer; fill: rgb(0, 0, 0); fill-opacity: 0;"/></g><g class="traces" transform="translate(0, 90.5)" style="opacity: 1;"><text class="legendtext user-select-none" text-anchor="start" x="40" y="9.360000000000001" style="font-family: 'Open Sans', verdana, arial, sans-serif; font-size: 24px; fill: rgb(42, 63, 95); fill-opacity: 1; white-space: pre;">Adagrad</text><g class="layers" style="opacity: 1;"><g class="legendfill"/><g class="legendlines"><path class="js-line" d="M5,0h30" style="fill: none; stroke: rgb(237, 105, 37); stroke-opacity: 1; stroke-width: 2px;"/></g><g class="legendsymbols"><g class="legendpoints"/></g></g><rect class="legendtoggle" pointer-events="all" x="0" y="-17.1" width="142.03125" height="34.2" style="cursor: pointer; fill: rgb(0, 0, 0); fill-opacity: 0;"/></g><g class="traces" transform="translate(0, 124.70000000000002)" style="opacity: 1;"><text class="legendtext user-select-none" text-anchor="start" x="40" y="9.360000000000001" style="font-family: 'Open Sans', verdana, arial, sans-serif; font-size: 24px; fill: rgb(42, 63, 95); fill-opacity: 1; white-space: pre;">RAdam</text><g class="layers" style="opacity: 1;"><g class="legendfill"/><g class="legendlines"><path class="js-line" d="M5,0h30" style="fill: none; stroke: rgb(207, 68, 70); stroke-opacity: 1; stroke-width: 2px;"/></g><g class="legendsymbols"><g class="legendpoints"/></g></g><rect class="legendtoggle" pointer-events="all" x="0" y="-17.1" width="142.03125" height="34.2" style="cursor: pointer; fill: rgb(0, 0, 0); fill-opacity: 0;"/></g><g class="traces" transform="translate(0, 158.9)" style="opacity: 1;"><text class="legendtext user-select-none" text-anchor="start" x="40" y="9.360000000000001" style="font-family: 'Open Sans', verdana, arial, sans-serif; font-size: 24px; fill: rgb(42, 63, 95); fill-opacity: 1; white-space: pre;">EMMN</text><g class="layers" style="opacity: 1;"><g class="legendfill"/><g class="legendlines"><path class="js-line" d="M5,0h30" style="fill: none; stroke: rgb(165, 44, 96); stroke-opacity: 1; stroke-width: 2px;"/></g><g class="legendsymbols"><g class="legendpoints"/></g></g><rect class="legendtoggle" pointer-events="all" x="0" y="-17.1" width="142.03125" height="34.2" style="cursor: pointer; fill: rgb(0, 0, 0); fill-opacity: 0;"/></g><g class="traces" transform="translate(0, 193.1)" style="opacity: 1;"><text class="legendtext user-select-none" text-anchor="start" x="40" y="9.360000000000001" style="font-family: 'Open Sans', verdana, arial, sans-serif; font-size: 24px; fill: rgb(42, 63, 95); fill-opacity: 1; white-space: pre;">SGDm</text><g class="layers" style="opacity: 1;"><g class="legendfill"/><g class="legendlines"><path class="js-line" d="M5,0h30" style="fill: none; stroke: rgb(120, 28, 109); stroke-opacity: 1; stroke-width: 2px;"/></g><g class="legendsymbols"><g class="legendpoints"/></g></g><rect class="legendtoggle" pointer-events="all" x="0" y="-17.1" width="142.03125" height="34.2" style="cursor: pointer; fill: rgb(0, 0, 0); fill-opacity: 0;"/></g><g class="traces" transform="translate(0, 227.29999999999998)" style="opacity: 1;"><text class="legendtext user-select-none" text-anchor="start" x="40" y="9.360000000000001" style="font-family: 'Open Sans', verdana, arial, sans-serif; font-size: 24px; fill: rgb(42, 63, 95); fill-opacity: 1; white-space: pre;">SGD</text><g class="layers" style="opacity: 1;"><g class="legendfill"/><g class="legendlines"><path class="js-line" d="M5,0h30" style="fill: none; stroke: rgb(74, 12, 107); stroke-opacity: 1; stroke-width: 2px;"/></g><g class="legendsymbols"><g class="legendpoints"/></g></g><rect class="legendtoggle" pointer-events="all" x="0" y="-17.1" width="142.03125" height="34.2" style="cursor: pointer; fill: rgb(0, 0, 0); fill-opacity: 0;"/></g></g></g><rect class="scrollbar" rx="20" ry="3" width="0" height="0" x="0" y="0" style="fill: rgb(128, 139, 164); fill-opacity: 1;"/></g><g class="g-gtitle"/><g class="g-xtitle"><text class="xtitle" x="561.5" y="788.1125" text-anchor="middle" style="font-family: 'Open Sans', verdana, arial, sans-serif; font-size: 29px; fill: rgb(42, 63, 95); opacity: 1; font-weight: normal; white-space: pre;">Iterations</text></g><g class="g-ytitle" transform="translate(13.8154296875,0)"><text class="ytitle" transform="rotate(-90,12.184375000000003,409)" x="12.184375000000003" y="409" text-anchor="middle" style="font-family: 'Open Sans', verdana, arial, sans-serif; font-size: 29px; fill: rgb(42, 63, 95); opacity: 1; font-weight: normal; white-space: pre;">Pseudo diagonal correlation score</text></g></g></svg>